# AST/ASF file generated using VICON BodyLanguage
# -----------------------------------------------
:version 1.10
:name VICON
:units
  mass 1.0
  length 0.45
  angle deg
:documentation
   .ast/.asf automatically generated from VICON data using
   VICON BodyBuilder and BodyLanguage model FoxedUp or BRILLIANT.MOD
:root
   order TX TY TZ RX RY RZ
   axis XYZ
   position 0 0 0  
   orientation 0 0 0 
:bonedata
  begin
     id 1 
     name lhipjoint
     direction 0.623415 -0.642378 0.445763 
     length 2.49859 
     axis 0 0 0  XYZ
  end
  begin
     id 2 
     name lfemur
     direction 0.34202 -0.939693 0  
     length 6.69689  
     axis 0 0 20  XYZ
    dof rx ry rz
    limits (-160.0 20.0)
           (-70.0 70.0)
           (-60.0 70.0)
  end
  begin
     id 3 
     name ltibia
     direction 0.34202 -0.939693 0   
     length 7.37574   
     axis 0 0 20   XYZ
    dof rx
    limits (-10.0 170.0)
  end
  begin
     id 4 
     name lfoot
     direction 0.084323 -0.231675 0.969132   
     length 2.09111   
     axis -90 7.62852e-016 20   XYZ
    dof rx rz
    limits (-45.0 90.0)
           (-70.0 20.0)
  end
  begin
     id 5 
     name ltoes
     direction 1.5357e-011 -4.21957e-011 1   
     length 1.04989   
     axis -90 7.62852e-016 20   XYZ
    dof rx
    limits (-90.0 20.0)
  end
  begin
     id 6 
     name rhipjoint
     direction -0.605402 -0.653903 0.45376   
     length 2.45455  
     axis 0 0 0  XYZ 
  end
  begin
     id 7 
     name rfemur
     direction -0.34202 -0.939693 0   
     length 6.64523   
     axis 0 0 -20   XYZ
    dof rx ry rz
    limits (-160.0 20.0)
           (-70.0 70.0)
           (-70.0 60.0)
  end
  begin
     id 8 
     name rtibia
     direction -0.34202 -0.939693 0   
     length 7.3339   
     axis 0 0 -20   XYZ
    dof rx
    limits (-10.0 170.0)
 end
 begin
     id 9 
     name rfoot
     direction -0.120854 -0.332043 0.93549   
     length 2.23135  
     axis -90 -7.62852e-016 -20   XYZ
    dof rx rz
    limits (-45.0 90.0)
           (-20.0 70.0)
  end
  begin
     id 10 
     name rtoes
     direction -1.53563e-011 -4.21914e-011 1   
     length 1.10614   
     axis -90 -7.62852e-016 -20   XYZ
    dof rx
    limits (-90.0 20.0)
  end
  begin
     id 11 
     name lowerback
     direction 0.0319682 0.998615 -0.0417941   
     length 2.02718   
     axis 0 0 0   XYZ
    dof rx ry rz
    limits (-20.0 45.0)
           (-30.0 30.0)
           (-30.0 30.0)
  end
  begin
     id 12 
     name upperback
     direction 7.63181e-005 0.995808 0.0914691   
     length 1.97539   
     axis 0 0 0   XYZ
    dof rx ry rz
    limits (-20.0 45.0)
           (-30.0 30.0)
           (-30.0 30.0)
  end
  begin
     id 13 
     name thorax
     direction -0.016423 0.993627 0.111514   
     length 2.00349   
     axis 0 0 0   XYZ
    dof rx ry rz
    limits (-20.0 45.0)
           (-30.0 30.0)
           (-30.0 30.0)
  end
  begin
     id 14 
     name lowerneck
     direction -0.174763 0.981668 -0.0760716   
     length 1.71436   
     axis 0 0 0   XYZ
    dof rx ry rz
    limits (-20.0 45.0)
           (-30.0 30.0)
           (-30.0 30.0)
  end
  begin
     id 15 
     name upperneck
     direction 0.345458 0.934587 -0.0848868   
     length 1.72805   
     axis 0 0 0   XYZ
    dof rx ry rz
    limits (-20.0 45.0)
           (-30.0 30.0)
           (-30.0 30.0)
  end
  begin
     id 16
     name head
     direction 0.13001 0.989848 -0.0574291  
     length 1.767  
     axis 0 0 0   XYZ
    dof rx ry rz
    limits (-20.0 45.0)
           (-30.0 30.0)
           (-30.0 30.0)
  end
  begin
     id 17 
     name lclavicle
     direction 0.952951 0.290122 0.0878234  
     length 3.54654  
     axis 0 0 0   XYZ
    dof ry rz
    limits (-20.0 10.0)
           (0.0 20.0)
  end
  begin
     id 18 
     name lhumerus
     direction 1 -4.48957e-011 -4.56525e-028   
     length 5.19807   
     axis 180 -30 -90   XYZ
    dof rx ry rz
    limits (-60.0 90.0)
           (-90.0 90.0)
           (-90.0 90.0)
  end
  begin
     id 19
     name lradius
     direction 1 -4.48979e-011 -2.0317e-027   
     length 3.0937   
     axis 180 -30 -90   XYZ
    dof rx
    limits (-10.0 170.0)
  end
  begin
     id 20
     name lwrist
     direction 1 -4.48953e-011 -3.05809e-027   
     length 1.54685   
     axis 8.48514e-016 90 90   XYZ
    dof ry
    limits (-180.0 0.0)
 end
  begin
     id 21 
     name lhand
     direction 1 -4.48952e-011 -6.11639e-027   
     length 0.672632   
     axis 3.9013e-015 90 90   XYZ
    dof rx rz
    limits (-90.0 90.0)
           (-45.0 45.0)
  end
  begin
     id 22 
     name lfingers
     direction 1 -4.48925e-011 -1.22426e-026   
     length 0.542293   
     axis 7.80276e-015 90 90   XYZ
    dof rx
    limits (0.0 90.0)
  end
  begin
     id 23
     name lthumb
     direction 0.707107 -6.3486e-011 0.707107   
     length 0.778628   
     axis -90 45 5.37419e-014   XYZ
    dof rx rz
    limits (-45.0 45.0)
           (-45.0 45.0)
  end
  begin
     id 24 
     name rclavicle
     direction -0.960732 0.273675 -0.0457849   
     length 3.52079  
     axis 0 0 0   XYZ 
    dof ry rz
    limits (-10.0 20.0)
           (-20.0 0.0)
  end
  begin
     id 25 
     name rhumerus
     direction -1 -4.48976e-011 -1.63613e-027  
     length 5.45222   
     axis 180 30 90   XYZ
    dof rx ry rz
    limits (-90.0 60.0)
           (-90.0 90.0)
           (-90.0 90.0)
  end
  begin
     id 26 
     name rradius
     direction -1 -4.48957e-011 -7.00033e-028   
     length 3.01284   
     axis 180 30 90   XYZ
    dof rx
    limits (-10.0 170.0)
  end
  begin
     id 27 
     name rwrist
     direction -1 -4.48983e-011 -3.05543e-027   
     length 1.50642   
     axis 8.48514e-016 -90 -90   XYZ
    dof ry
    limits (-180.0 0.0)
  end
  begin
     id 28
     name rhand
     direction -1 -4.48984e-011 -6.11072e-027   
     length 0.622296   
     axis 3.9013e-015 -90 -90   XYZ
    dof rx rz
    limits (-90.0 90.0)
           (-45.0 45.0)
  end
  begin
     id 29
     name rfingers
     direction -1 -4.48865e-011 -1.22637e-026   
     length 0.501711   
     axis 7.80276e-015 -90 -90   XYZ
    dof rx
    limits (0.0 90.0)
  end
  begin
     id 30
     name rthumb
     direction -0.707107 -6.34932e-011 0.707107   
     length 0.72036   
     axis -90 -45 -5.37419e-014   XYZ
    dof rx rz
    limits (-45.0 45.0)
           (-45.0 45.0)
  end
:hierarchy
  begin
    root lhipjoint rhipjoint lowerback
    lhipjoint lfemur
    lfemur ltibia
    ltibia lfoot
    lfoot ltoes
    rhipjoint rfemur
    rfemur rtibia
    rtibia rfoot
    rfoot rtoes
    lowerback upperback
    upperback thorax
    thorax lowerneck lclavicle rclavicle
    lowerneck upperneck
    upperneck head
    lclavicle lhumerus
    lhumerus lradius
    lradius lwrist
    lwrist lhand lthumb
    lhand lfingers
    rclavicle rhumerus
    rhumerus rradius
    rradius rwrist
    rwrist rhand rthumb
    rhand rfingers
  end

#!OML:ASF H:\Not Pregnant\Project 1\Capture day 1\Session 1\non-pregnant.ASF
:FULLY-SPECIFIED
:DEGREES
1
root -3.95579 15.7686 44.1288 153.528 -82.6499 -141.731
lowerback -10.5007 1.5654 2.56159
upperback -6.81823 1.54893 0.181981
thorax -1.14768 0.565585 -1.10241
lowerneck 18.2049 -9.15123 -31.119
upperneck -4.63823 -20.7644 42.357
head 4.54457 -13.1685 21.7796
rclavicle -2.40032e-014 -1.70955e-014
rhumerus -38.541 -11.0586 -82.5695
rradius 29.6375
rwrist 33.0943
rhand -3.37394 10.135
rfingers 7.12502
rthumb 22.355 -18.5916
lclavicle -2.40032e-014 -1.70955e-014
lhumerus -42.2098 -2.71315 86.2304
lradius 31.1416
lwrist 41.425
lhand 9.81107 -6.8322
lfingers 7.12502
lthumb 34.9471 19.7362
rfemur -22.2341 -4.83092 24.3757
rtibia 28.5887
rfoot -20.4963 14.9642
rtoes -9.99033
lfemur -21.4701 5.34438 -13.9982
ltibia 28.8221
lfoot -21.251 -5.239
ltoes -18.1719
2
root -3.95544 15.7684 44.1226 154.38 -82.9553 -142.563
lowerback -10.491 1.47092 2.45035
upperback -6.83076 1.43365 0.114462
thorax -1.17104 0.509619 -1.12114
lowerneck 18.137 -9.12703 -31.2016
upperneck -4.60569 -20.721 42.3142
head 4.55079 -13.1333 21.7756
rclavicle 1.11319e-014 7.15625e-015
rhumerus -38.553 -11.5132 -82.1112
rradius 29.4569
rwrist 33.5424
rhand -3.43281 10.1554
rfingers 7.12502
rthumb 22.2985 -18.578
lclavicle 1.11319e-014 7.15625e-015
lhumerus -42.2077 -2.61529 86.2238
lradius 31.1219
lwrist 41.2734
lhand 9.64691 -6.88737
lfingers 7.12502
lthumb 34.7914 19.7172
rfemur -22.3881 -5.47466 24.184
rtibia 28.7875
rfoot -20.6266 15.4306
rtoes -9.672
lfemur -21.4541 4.90219 -14.231
ltibia 28.6977
lfoot -21.1705 -4.96025
ltoes -18.5223
3
root -3.95729 15.7647 44.0877 152.865 -82.9093 -141.15
lowerback -10.4159 1.4671 2.38276
upperback -6.801 1.43923 0.179667
thorax -1.18355 0.517362 -1.01642
lowerneck 18.1702 -9.12941 -31.2024
upperneck -4.63889 -20.7392 42.3667
head 4.55523 -13.1535 21.8131
rclavicle -5.01931e-015 3.57812e-015
rhumerus -38.4649 -4.17093 -85.4176
rradius 29.8953
rwrist 25.6265
rhand -4.37457 8.09679
rfingers 7.12502
rthumb 21.3942 -20.742
lclavicle -5.01931e-015 3.57812e-015
lhumerus -42.1804 -2.7639 86.2292
lradius 31.0883
lwrist 41.1959
lhand 9.48313 -6.92914
lfingers 7.12502
lthumb 34.6359 19.7112
rfemur -22.2306 -4.97885 24.4293
rtibia 28.8465
rfoot -20.5846 14.8954
rtoes -9.71923
lfemur -21.3086 4.94303 -13.8921
ltibia 28.686
lfoot -21.2082 -5.02796
ltoes -18.5579
4
root -3.96075 15.7627 44.0667 152.267 -83.0313 -140.571
lowerback -10.4116 1.45761 2.35591
upperback -6.81598 1.42902 0.150367
thorax -1.20176 0.512122 -1.03285
lowerneck 18.2341 -9.16878 -31.0979
upperneck -4.66216 -20.7691 42.3103
head 4.52091 -13.1653 21.7378
rclavicle 6.41081e-015 -3.57812e-015
rhumerus -38.6585 -5.50137 -84.6233
rradius 29.9331
rwrist 26.7855
rhand -4.32079 8.27641
rfingers 7.12502
rthumb 21.4459 -20.5565
lclavicle 6.41081e-015 -3.57812e-015
lhumerus -42.2072 -2.9247 86.2491
lradius 31.0721
lwrist 41.1097
lhand 9.25187 -7.03554
lfingers 7.12502
lthumb 34.4164 19.6548
rfemur -22.2087 -4.9087 24.4799
rtibia 28.9337
rfoot -20.6589 14.6312
rtoes -10.0109
lfemur -21.2543 4.60611 -13.7934
ltibia 28.6474
lfoot -21.1808 -4.76977
ltoes -18.8485
5
root -3.96341 15.7605 44.0437 151.592 -83.1421 -139.93
lowerback -10.3914 1.42381 2.30574
upperback -6.82419 1.38926 0.149719
thorax -1.22371 0.493565 -1.00953
lowerneck 18.2817 -9.1728 -31.069
upperneck -4.67589 -20.7647 42.2697
head 4.49221 -13.161 21.7061
rclavicle 7.8023e-015 -1.31198e-014
rhumerus -38.8239 -4.45755 -84.9441
rradius 30.0869
rwrist 25.4556
rhand -4.60749 7.76713
rfingers 7.12502
rthumb 21.1705 -21.0969
lclavicle 7.8023e-015 -1.31198e-014
lhumerus -42.229 -2.99182 86.2478
lradius 31.0497
lwrist 40.9969
lhand 9.05269 -7.12003
lfingers 7.12502
lthumb 34.2273 19.613
rfemur -22.1546 -4.88561 24.5515
rtibia 28.9756
rfoot -20.6816 14.4708
rtoes -10.0634
lfemur -21.2076 4.33984 -13.6797
ltibia 28.6513
lfoot -21.1829 -4.58627
ltoes -19.0474
6
root -3.96655 15.7583 44.02 150.792 -83.2473 -139.16
lowerback -10.3795 1.38409 2.26475
upperback -6.8378 1.34009 0.16125
thorax -1.24717 0.469938 -0.979502
lowerneck 18.3784 -9.19053 -30.8493
upperneck -4.84671 -20.6971 42.5508
head 4.36724 -13.1113 21.225
rclavicle -2.47487e-014 -1.27222e-014
rhumerus -39.0102 -3.7704 -85.0961
rradius 30.225
rwrist 24.4748
rhand -4.89441 7.29185
rfingers 7.12502
rthumb 20.8949 -21.6028
lclavicle -2.47487e-014 -1.27222e-014
lhumerus -42.2647 -3.02383 86.2389
lradius 31.03
lwrist 40.8825
lhand 8.85946 -7.20808
lfingers 7.12502
lthumb 34.0438 19.566
rfemur -22.1111 -4.87735 24.6422
rtibia 29.0343
rfoot -20.7137 14.3242
rtoes -10.0894
lfemur -21.1547 4.06975 -13.5482
ltibia 28.637
lfoot -21.1747 -4.40411
ltoes -19.2302
7
root -3.97008 15.7558 43.9957 149.843 -83.3465 -138.235
lowerback -10.3752 1.3364 2.23533
upperback -6.85712 1.2786 0.188309
thorax -1.27296 0.439747 -0.940908
lowerneck 18.4262 -9.17176 -30.8666
upperneck -4.82889 -20.674 42.4883
head 4.34244 -13.0955 21.2023
rclavicle -7.8023e-015 -5.1684e-015
rhumerus -39.1867 -3.65284 -84.9645
rradius 30.2891
rwrist 24.1108
rhand -5.13114 6.94624
rfingers 7.12502
rthumb 20.6674 -21.9734
lclavicle -7.8023e-015 -5.1684e-015
lhumerus -42.3123 -3.00468 86.217
lradius 31.013
lwrist 40.7734
lhand 8.69778 -7.28691
lfingers 7.12502
lthumb 33.8902 19.5212
rfemur -22.0746 -4.91087 24.7566
rtibia 29.0923
rfoot -20.7473 14.2223
rtoes -10.0699
lfemur -21.1134 3.81211 -13.4002
ltibia 28.631
lfoot -21.1736 -4.22908
ltoes -19.4328
